<?xml version="1.0" encoding="UTF-8"?><svg id="a" xmlns="http://www.w3.org/2000/svg" viewBox="0 0 200 200"><path d="M100,14c47.42,0,86,38.58,86,86s-38.58,86-86,86S14,147.42,14,100,52.58,14,100,14M100,4C46.98,4,4,46.98,4,100s42.98,96,96,96,96-42.98,96-96S153.02,4,100,4h0Z" style="fill:#fff; stroke-width:0px;"/><path d="M62.56,139.21c-9.13-26.66-15.67-52.53-19.49-78.18h18.63c3.45,23.86,8.88,48.38,15.3,71.01l15.42-71.01h17.02l21.34,70.78c5.3-22.96,8.51-46.82,9.38-70.78h16.9c-4.07,25.65-10.98,51.63-20.85,78.18h-20.23l-18.5-61.04-13.2,61.04h-21.71Z" style="fill:#fff; stroke-width:0px;"/></svg>