<?xml version="1.0" encoding="UTF-8"?><svg id="a" xmlns="http://www.w3.org/2000/svg" viewBox="0 0 200 200"><path d="M100,14c47.42,0,86,38.58,86,86s-38.58,86-86,86S14,147.42,14,100,52.58,14,100,14M100,4C46.98,4,4,46.98,4,100s42.98,96,96,96,96-42.98,96-96S153.02,4,100,4h0Z" style="fill:#fff; stroke-width:0px;"/><path d="M70.15,139.21V61.04h26.52c25.16,0,34.17,7.5,34.17,19.04,0,9.3-6.41,15.01-16.41,17.36,12.95,2.13,19.74,8.85,19.74,19.15,0,16.35-14.06,22.62-38.86,22.62h-25.16ZM96.05,95.87c10.98,0,16.16-4.48,16.16-14.11,0-8.62-4.07-13.66-16.41-13.66h-7.52v27.78h7.77ZM95.68,132.16c13.57,0,19.24-4.48,19.24-14.78s-5.18-14.9-19-14.9h-7.65v29.68h7.4Z" style="fill:#fff; stroke-width:0px;"/></svg>