<?xml version="1.0" encoding="utf-8"?>
<!-- Generator: Adobe Illustrator 25.4.5, SVG Export Plug-In . SVG Version: 6.00 Build 0)  -->
<svg version="1.1" id="Layer_1" xmlns="http://www.w3.org/2000/svg" xmlns:xlink="http://www.w3.org/1999/xlink" x="0px" y="0px"
	 viewBox="0 0 210 208.9" style="enable-background:new 0 0 210 208.9;" xml:space="preserve">
<style type="text/css">
	.st0{fill:url(#SVGID_1_);}
	.st1{fill:url(#SVGID_00000062887810604729387160000010897170874984021136_);}
	.st2{fill:url(#SVGID_00000176045534868457662540000013009647093272051889_);}
	.st3{fill:url(#SVGID_00000044872716627080539270000008256537327574724518_);}
	.st4{fill:url(#SVGID_00000005253281099121872390000003490449266851125420_);}
	.st5{fill:url(#SVGID_00000121280850007792013900000001634290186939790724_);}
	.st6{fill:url(#SVGID_00000046335860218926285390000001707266733292530109_);}
	.st7{fill:url(#SVGID_00000044880797470099720390000000535798264341450147_);}
	.st8{fill:url(#SVGID_00000155864257426177768000000011213138820506572681_);}
	.st9{fill:url(#SVGID_00000149361747466936832910000000091597482751139471_);}
	.st10{fill:url(#SVGID_00000069398055255547424050000000553871606588084914_);}
	.st11{fill:url(#SVGID_00000106864251299480293470000009151537331996180626_);}
	.st12{fill:url(#SVGID_00000095327967244653988740000009811027371192336803_);}
	.st13{fill:url(#SVGID_00000005227135278242427390000003444222475012330143_);}
	.st14{fill:url(#SVGID_00000104703243695062504360000005603847931206370463_);}
	.st15{fill:url(#SVGID_00000038407827408502059830000017230129945976670348_);}
	.st16{fill:url(#SVGID_00000112628873859017700470000007132804975742541218_);}
	.st17{fill:url(#SVGID_00000006694967065660505950000018400138715941984134_);}
	.st18{fill:url(#SVGID_00000109003308390467002620000012102632739808098701_);}
	.st19{fill:url(#SVGID_00000113316008546855370790000000386730539736120228_);}
	.st20{fill:url(#SVGID_00000023975764941510405150000007211538101570602883_);}
	.st21{fill:url(#SVGID_00000121255272960258914930000003912670571076023226_);}
	.st22{fill:url(#SVGID_00000155110260760169407100000000910514251087805854_);}
	.st23{fill:url(#SVGID_00000086659921080053626110000012418935978395493790_);}
</style>
<g>
	<g>
		<linearGradient id="SVGID_1_" gradientUnits="userSpaceOnUse" x1="204.0178" y1="72.8164" x2="86.2453" y2="190.5889">
			<stop  offset="0" style="stop-color:#00FF82"/>
			<stop  offset="0.25" style="stop-color:#00D2FF"/>
			<stop  offset="0.4988" style="stop-color:#0078FA"/>
			<stop  offset="0.75" style="stop-color:#8250E6"/>
			<stop  offset="1" style="stop-color:#FF32B4"/>
		</linearGradient>
		<path class="st0" d="M81.6,183.3c-0.5-0.5-1.3-0.5-2-0.2c-0.6,0.4-0.9,1.2-0.7,1.8l2.1,6.7l-0.5,2.4l-4.7,5.2
			c-0.5,0.5-0.6,1.3-0.2,1.9c0.2,0.4,0.6,0.6,1,0.7c0.3,0.1,0.5,0.1,0.8,0l15.9-4.8c0.6-0.2,1-0.6,1.1-1.2c0.1-0.6-0.1-1.2-0.5-1.5
			L81.6,183.3z"/>
		
			<linearGradient id="SVGID_00000172404470875893608120000015946617308397044920_" gradientUnits="userSpaceOnUse" x1="192.1007" y1="60.8993" x2="74.3282" y2="178.6718">
			<stop  offset="0" style="stop-color:#00FF82"/>
			<stop  offset="0.25" style="stop-color:#00D2FF"/>
			<stop  offset="0.4988" style="stop-color:#0078FA"/>
			<stop  offset="0.75" style="stop-color:#8250E6"/>
			<stop  offset="1" style="stop-color:#FF32B4"/>
		</linearGradient>
		<path style="fill:url(#SVGID_00000172404470875893608120000015946617308397044920_);" d="M67.2,175.3c-0.3-0.7-1-1-1.8-0.9
			c-0.7,0.1-1.2,0.8-1.3,1.5l-0.5,7l-1.4,2.1l-6.3,3.1c-0.6,0.3-1,1-0.9,1.8c0.1,0.4,0.3,0.8,0.7,1c0.2,0.1,0.5,0.2,0.8,0.3
			l16.6,1.3c0.6,0,1.1-0.2,1.5-0.7c0.3-0.5,0.4-1.1,0.1-1.6L67.2,175.3z"/>
		
			<linearGradient id="SVGID_00000171001165409167869260000006908539952280809860_" gradientUnits="userSpaceOnUse" x1="178.3483" y1="47.1469" x2="60.5758" y2="164.9194">
			<stop  offset="0" style="stop-color:#00FF82"/>
			<stop  offset="0.25" style="stop-color:#00D2FF"/>
			<stop  offset="0.4988" style="stop-color:#0078FA"/>
			<stop  offset="0.75" style="stop-color:#8250E6"/>
			<stop  offset="1" style="stop-color:#FF32B4"/>
		</linearGradient>
		<path style="fill:url(#SVGID_00000171001165409167869260000006908539952280809860_);" d="M57.4,180.7c0.4-0.4,0.6-1,0.4-1.6
			l-4.7-16c-0.2-0.7-0.9-1.2-1.6-1.2c-0.7,0-1.4,0.5-1.5,1.2l-1.8,6.8l-1.7,1.8l-6.7,1.9c-0.7,0.2-1.2,0.8-1.2,1.6
			c0,0.4,0.2,0.8,0.5,1.1c0.2,0.2,0.4,0.3,0.7,0.4l16.1,4.3C56.4,181.3,57,181.1,57.4,180.7z"/>
		
			<linearGradient id="SVGID_00000181780187297122470990000016201280430857935803_" gradientUnits="userSpaceOnUse" x1="163.6209" y1="32.4195" x2="45.8484" y2="150.192">
			<stop  offset="0" style="stop-color:#00FF82"/>
			<stop  offset="0.25" style="stop-color:#00D2FF"/>
			<stop  offset="0.4988" style="stop-color:#0078FA"/>
			<stop  offset="0.75" style="stop-color:#8250E6"/>
			<stop  offset="1" style="stop-color:#FF32B4"/>
		</linearGradient>
		<path style="fill:url(#SVGID_00000181780187297122470990000016201280430857935803_);" d="M42.5,166.4c0.4-0.4,0.6-1,0.5-1.5
			l-3.6-16.3c-0.2-0.7-0.8-1.2-1.5-1.3c-0.7,0-1.4,0.4-1.6,1.1l-2.2,6.7l-1.9,1.7l-6.9,1.5c-0.7,0.2-1.2,0.8-1.3,1.5
			c0,0.4,0.1,0.9,0.4,1.2c0.2,0.2,0.4,0.4,0.7,0.4l15.8,5.4C41.4,166.9,42,166.8,42.5,166.4z"/>
		
			<linearGradient id="SVGID_00000127759556032248791050000009656808250759956882_" gradientUnits="userSpaceOnUse" x1="147.9376" y1="16.7361" x2="30.1651" y2="134.5086">
			<stop  offset="0" style="stop-color:#00FF82"/>
			<stop  offset="0.25" style="stop-color:#00D2FF"/>
			<stop  offset="0.4988" style="stop-color:#0078FA"/>
			<stop  offset="0.75" style="stop-color:#8250E6"/>
			<stop  offset="1" style="stop-color:#FF32B4"/>
		</linearGradient>
		<path style="fill:url(#SVGID_00000127759556032248791050000009656808250759956882_);" d="M28.6,149.8c0.5-0.3,0.9-0.8,0.9-1.4
			l0.7-16.6c0-0.7-0.4-1.4-1.1-1.6c-0.7-0.2-1.4,0-1.8,0.7l-3.9,5.9l-2.2,1.1l-7-0.4c-0.7,0-1.4,0.4-1.6,1.1
			c-0.1,0.4-0.1,0.9,0.1,1.2c0.1,0.2,0.3,0.4,0.5,0.6l13.8,9.3C27.4,150.1,28.1,150.1,28.6,149.8z"/>
		
			<linearGradient id="SVGID_00000177470603778250705550000016623188280213358504_" gradientUnits="userSpaceOnUse" x1="133.4999" y1="2.2985" x2="15.7274" y2="120.071">
			<stop  offset="0" style="stop-color:#00FF82"/>
			<stop  offset="0.25" style="stop-color:#00D2FF"/>
			<stop  offset="0.4988" style="stop-color:#0078FA"/>
			<stop  offset="0.75" style="stop-color:#8250E6"/>
			<stop  offset="1" style="stop-color:#FF32B4"/>
		</linearGradient>
		<path style="fill:url(#SVGID_00000177470603778250705550000016623188280213358504_);" d="M19.8,129.5c0.6-0.1,1.1-0.5,1.3-1
			l5.9-15.6c0.3-0.7,0-1.4-0.6-1.9c-0.6-0.4-1.4-0.4-2,0l-5.5,4.4l-2.5,0.4l-6.6-2.5c-0.7-0.3-1.4,0-1.9,0.5
			c-0.3,0.4-0.4,0.8-0.3,1.2c0,0.3,0.1,0.5,0.3,0.7l10.2,13.1C18.6,129.4,19.2,129.6,19.8,129.5z"/>
		
			<linearGradient id="SVGID_00000114777718081658875530000007877361484308847020_" gradientUnits="userSpaceOnUse" x1="120.854" y1="-10.3474" x2="3.0815" y2="107.4251">
			<stop  offset="0" style="stop-color:#00FF82"/>
			<stop  offset="0.25" style="stop-color:#00D2FF"/>
			<stop  offset="0.4988" style="stop-color:#0078FA"/>
			<stop  offset="0.75" style="stop-color:#8250E6"/>
			<stop  offset="1" style="stop-color:#FF32B4"/>
		</linearGradient>
		<path style="fill:url(#SVGID_00000114777718081658875530000007877361484308847020_);" d="M16.6,106.8c0.6,0,1.1-0.3,1.4-0.8
			l8.2-14.5c0.4-0.6,0.2-1.4-0.3-1.9c-0.5-0.5-1.3-0.6-1.9-0.2l-6.1,3.5h-2.5l-6.1-3.5c-0.6-0.4-1.4-0.3-1.9,0.2
			c-0.3,0.3-0.5,0.7-0.5,1.2c0,0.3,0.1,0.5,0.2,0.8l8.2,14.5C15.5,106.5,16,106.8,16.6,106.8z"/>
		
			<linearGradient id="SVGID_00000085215814786631475760000013858465251806333608_" gradientUnits="userSpaceOnUse" x1="109.5618" y1="-21.6396" x2="-8.2107" y2="96.1329">
			<stop  offset="0" style="stop-color:#00FF82"/>
			<stop  offset="0.25" style="stop-color:#00D2FF"/>
			<stop  offset="0.4988" style="stop-color:#0078FA"/>
			<stop  offset="0.75" style="stop-color:#8250E6"/>
			<stop  offset="1" style="stop-color:#FF32B4"/>
		</linearGradient>
		<path style="fill:url(#SVGID_00000085215814786631475760000013858465251806333608_);" d="M15.2,83.4c0.3,0.5,0.8,0.8,1.4,0.8
			c0.6,0,1.1-0.3,1.4-0.8l8.2-14.5c0.4-0.6,0.2-1.4-0.3-1.9c-0.5-0.5-1.3-0.6-1.9-0.2l-6.1,3.5h-2.5l-6.1-3.5
			c-0.6-0.4-1.4-0.3-1.9,0.2c-0.3,0.3-0.5,0.7-0.5,1.2c0,0.3,0.1,0.5,0.2,0.8L15.2,83.4z"/>
		
			<linearGradient id="SVGID_00000165219977186178404920000000916491951128583303_" gradientUnits="userSpaceOnUse" x1="98.2698" y1="-32.9316" x2="-19.5027" y2="84.8409">
			<stop  offset="0" style="stop-color:#00FF82"/>
			<stop  offset="0.25" style="stop-color:#00D2FF"/>
			<stop  offset="0.4988" style="stop-color:#0078FA"/>
			<stop  offset="0.75" style="stop-color:#8250E6"/>
			<stop  offset="1" style="stop-color:#FF32B4"/>
		</linearGradient>
		<path style="fill:url(#SVGID_00000165219977186178404920000000916491951128583303_);" d="M15.2,60.8c0.3,0.5,0.8,0.8,1.4,0.8
			c0.6,0,1.1-0.3,1.4-0.8l8.2-14.5c0.4-0.6,0.2-1.4-0.3-1.9c-0.5-0.5-1.3-0.6-1.9-0.2l-6.1,3.5h-2.5l-6.1-3.5
			c-0.6-0.4-1.4-0.3-1.9,0.2c-0.3,0.3-0.5,0.7-0.5,1.2c0,0.3,0.1,0.5,0.2,0.8L15.2,60.8z"/>
		
			<linearGradient id="SVGID_00000041976264402105353110000016030152741877253251_" gradientUnits="userSpaceOnUse" x1="87.6871" y1="-43.5143" x2="-30.0854" y2="74.2582">
			<stop  offset="0" style="stop-color:#00FF82"/>
			<stop  offset="0.25" style="stop-color:#00D2FF"/>
			<stop  offset="0.4988" style="stop-color:#0078FA"/>
			<stop  offset="0.75" style="stop-color:#8250E6"/>
			<stop  offset="1" style="stop-color:#FF32B4"/>
		</linearGradient>
		<path style="fill:url(#SVGID_00000041976264402105353110000016030152741877253251_);" d="M15.3,38.8c0.2,0.5,0.7,0.9,1.3,1
			c0.6,0.1,1.1-0.2,1.5-0.6l9.9-13.4c0.4-0.6,0.4-1.4,0-2c-0.4-0.6-1.2-0.8-1.9-0.5L19.7,26l-2.5-0.3l-5.6-4.2c-0.6-0.4-1.4-0.4-2,0
			c-0.4,0.3-0.6,0.7-0.6,1.1c0,0.3,0,0.5,0.1,0.8L15.3,38.8z"/>
		
			<linearGradient id="SVGID_00000072961146237220816200000007674181595849868162_" gradientUnits="userSpaceOnUse" x1="227.1071" y1="95.9057" x2="109.3346" y2="213.6782">
			<stop  offset="0" style="stop-color:#00FF82"/>
			<stop  offset="0.25" style="stop-color:#00D2FF"/>
			<stop  offset="0.4988" style="stop-color:#0078FA"/>
			<stop  offset="0.75" style="stop-color:#8250E6"/>
			<stop  offset="1" style="stop-color:#FF32B4"/>
		</linearGradient>
		<path style="fill:url(#SVGID_00000072961146237220816200000007674181595849868162_);" d="M129.4,194.2l-0.5-2.4l2.1-6.7
			c0.2-0.7-0.1-1.4-0.7-1.8c-0.6-0.4-1.4-0.3-2,0.2l-12.4,11.1c-0.4,0.4-0.6,1-0.5,1.5c0.1,0.6,0.5,1,1.1,1.2l15.9,4.8
			c0.3,0.1,0.5,0.1,0.8,0c0.4-0.1,0.8-0.3,1-0.7c0.4-0.6,0.3-1.4-0.2-1.9L129.4,194.2z"/>
		
			<linearGradient id="SVGID_00000029019244110902463290000011443290007668005552_" gradientUnits="userSpaceOnUse" x1="231.3885" y1="100.1871" x2="113.6161" y2="217.9596">
			<stop  offset="0" style="stop-color:#00FF82"/>
			<stop  offset="0.25" style="stop-color:#00D2FF"/>
			<stop  offset="0.4988" style="stop-color:#0078FA"/>
			<stop  offset="0.75" style="stop-color:#8250E6"/>
			<stop  offset="1" style="stop-color:#FF32B4"/>
		</linearGradient>
		<path style="fill:url(#SVGID_00000029019244110902463290000011443290007668005552_);" d="M154,188.1l-6.3-3.1l-1.4-2.1l-0.5-7
			c-0.1-0.7-0.6-1.3-1.3-1.5c-0.7-0.1-1.4,0.2-1.8,0.9l-7.5,14.9c-0.3,0.5-0.2,1.1,0.1,1.6c0.3,0.5,0.9,0.8,1.5,0.7l16.6-1.3
			c0.3,0,0.5-0.1,0.8-0.3c0.4-0.2,0.6-0.6,0.7-1C155,189.2,154.7,188.5,154,188.1z"/>
		
			<linearGradient id="SVGID_00000150804996714417810050000006762957294604182194_" gradientUnits="userSpaceOnUse" x1="232.3955" y1="101.1941" x2="114.623" y2="218.9666">
			<stop  offset="0" style="stop-color:#00FF82"/>
			<stop  offset="0.25" style="stop-color:#00D2FF"/>
			<stop  offset="0.4988" style="stop-color:#0078FA"/>
			<stop  offset="0.75" style="stop-color:#8250E6"/>
			<stop  offset="1" style="stop-color:#FF32B4"/>
		</linearGradient>
		<path style="fill:url(#SVGID_00000150804996714417810050000006762957294604182194_);" d="M170.3,173.7l-6.7-1.9l-1.7-1.8l-1.8-6.8
			c-0.2-0.7-0.8-1.2-1.5-1.2c-0.7,0-1.4,0.5-1.6,1.2l-4.7,16c-0.2,0.6,0,1.2,0.4,1.6c0.4,0.4,1,0.6,1.6,0.4l16.1-4.3
			c0.3-0.1,0.5-0.2,0.7-0.4c0.3-0.3,0.5-0.7,0.5-1.1C171.4,174.6,171,173.9,170.3,173.7z"/>
		
			<linearGradient id="SVGID_00000023964282471024443950000017844389444616834688_" gradientUnits="userSpaceOnUse" x1="231.9628" y1="100.7614" x2="114.1903" y2="218.5339">
			<stop  offset="0" style="stop-color:#00FF82"/>
			<stop  offset="0.25" style="stop-color:#00D2FF"/>
			<stop  offset="0.4988" style="stop-color:#0078FA"/>
			<stop  offset="0.75" style="stop-color:#8250E6"/>
			<stop  offset="1" style="stop-color:#FF32B4"/>
		</linearGradient>
		<path style="fill:url(#SVGID_00000023964282471024443950000017844389444616834688_);" d="M184.7,158.3l-6.9-1.5l-1.9-1.7l-2.2-6.7
			c-0.2-0.7-0.9-1.1-1.6-1.1c-0.7,0-1.3,0.6-1.5,1.3l-3.6,16.3c-0.1,0.6,0.1,1.2,0.5,1.5c0.4,0.4,1,0.5,1.6,0.3l15.8-5.4
			c0.3-0.1,0.5-0.2,0.7-0.4c0.3-0.3,0.4-0.7,0.4-1.2C186,159,185.4,158.4,184.7,158.3z"/>
		
			<linearGradient id="SVGID_00000002381325475135152340000003646447163708599425_" gradientUnits="userSpaceOnUse" x1="227.6562" y1="96.4548" x2="109.8837" y2="214.2273">
			<stop  offset="0" style="stop-color:#00FF82"/>
			<stop  offset="0.25" style="stop-color:#00D2FF"/>
			<stop  offset="0.4988" style="stop-color:#0078FA"/>
			<stop  offset="0.75" style="stop-color:#8250E6"/>
			<stop  offset="1" style="stop-color:#FF32B4"/>
		</linearGradient>
		<path style="fill:url(#SVGID_00000002381325475135152340000003646447163708599425_);" d="M195.9,137.5l-7,0.4l-2.2-1.1l-3.9-5.9
			c-0.4-0.6-1.2-0.9-1.8-0.7c-0.7,0.2-1.1,0.9-1.1,1.6l0.7,16.6c0,0.6,0.4,1.1,0.9,1.4c0.5,0.3,1.1,0.2,1.6-0.1l13.8-9.3
			c0.2-0.2,0.4-0.4,0.5-0.6c0.2-0.4,0.2-0.8,0.1-1.2C197.3,137.9,196.6,137.4,195.9,137.5z"/>
		
			<linearGradient id="SVGID_00000032612251377686640850000000644755207791521944_" gradientUnits="userSpaceOnUse" x1="219.4228" y1="88.2214" x2="101.6503" y2="205.9939">
			<stop  offset="0" style="stop-color:#00FF82"/>
			<stop  offset="0.25" style="stop-color:#00D2FF"/>
			<stop  offset="0.4988" style="stop-color:#0078FA"/>
			<stop  offset="0.75" style="stop-color:#8250E6"/>
			<stop  offset="1" style="stop-color:#FF32B4"/>
		</linearGradient>
		<path style="fill:url(#SVGID_00000032612251377686640850000000644755207791521944_);" d="M200.1,113.3l-6.6,2.5l-2.5-0.4l-5.5-4.4
			c-0.6-0.5-1.4-0.5-2,0c-0.6,0.4-0.8,1.2-0.6,1.9l5.9,15.6c0.2,0.5,0.7,0.9,1.3,1c0.6,0.1,1.2-0.1,1.5-0.6l10.2-13.1
			c0.2-0.2,0.3-0.5,0.3-0.7c0.1-0.4,0-0.9-0.3-1.2C201.5,113.2,200.8,113,200.1,113.3z"/>
		
			<linearGradient id="SVGID_00000054223628500604489100000003601777674735716996_" gradientUnits="userSpaceOnUse" x1="209.232" y1="78.0306" x2="91.4595" y2="195.8031">
			<stop  offset="0" style="stop-color:#00FF82"/>
			<stop  offset="0.25" style="stop-color:#00D2FF"/>
			<stop  offset="0.4988" style="stop-color:#0078FA"/>
			<stop  offset="0.75" style="stop-color:#8250E6"/>
			<stop  offset="1" style="stop-color:#FF32B4"/>
		</linearGradient>
		<path style="fill:url(#SVGID_00000054223628500604489100000003601777674735716996_);" d="M200.7,89.3l-6.1,3.5h-2.5l-6.1-3.5
			c-0.6-0.4-1.4-0.3-1.9,0.2c-0.5,0.5-0.6,1.3-0.3,1.9L192,106c0.3,0.5,0.8,0.8,1.4,0.8c0.6,0,1.1-0.3,1.4-0.8l8.2-14.5
			c0.1-0.2,0.2-0.5,0.2-0.8c0-0.4-0.2-0.8-0.5-1.2C202.2,89,201.4,88.9,200.7,89.3z"/>
		
			<linearGradient id="SVGID_00000027604394639350099400000014672352175011558810_" gradientUnits="userSpaceOnUse" x1="197.9398" y1="66.7384" x2="80.1673" y2="184.5109">
			<stop  offset="0" style="stop-color:#00FF82"/>
			<stop  offset="0.25" style="stop-color:#00D2FF"/>
			<stop  offset="0.4988" style="stop-color:#0078FA"/>
			<stop  offset="0.75" style="stop-color:#8250E6"/>
			<stop  offset="1" style="stop-color:#FF32B4"/>
		</linearGradient>
		<path style="fill:url(#SVGID_00000027604394639350099400000014672352175011558810_);" d="M200.7,66.7l-6.1,3.5h-2.5l-6.1-3.5
			c-0.6-0.4-1.4-0.3-1.9,0.2c-0.5,0.5-0.6,1.3-0.3,1.9l8.2,14.5c0.3,0.5,0.8,0.8,1.4,0.8c0.6,0,1.1-0.3,1.4-0.8l8.2-14.5
			c0.1-0.2,0.2-0.5,0.2-0.8c0-0.4-0.2-0.8-0.5-1.2C202.2,66.5,201.4,66.4,200.7,66.7z"/>
		
			<linearGradient id="SVGID_00000110449210285256054320000016955600066371267717_" gradientUnits="userSpaceOnUse" x1="186.6478" y1="55.4464" x2="68.8753" y2="173.2189">
			<stop  offset="0" style="stop-color:#00FF82"/>
			<stop  offset="0.25" style="stop-color:#00D2FF"/>
			<stop  offset="0.4988" style="stop-color:#0078FA"/>
			<stop  offset="0.75" style="stop-color:#8250E6"/>
			<stop  offset="1" style="stop-color:#FF32B4"/>
		</linearGradient>
		<path style="fill:url(#SVGID_00000110449210285256054320000016955600066371267717_);" d="M194.6,47.6h-2.5l-6.1-3.5
			c-0.6-0.4-1.4-0.3-1.9,0.2c-0.5,0.5-0.6,1.3-0.3,1.9l8.2,14.5c0.3,0.5,0.8,0.8,1.4,0.8c0.6,0,1.1-0.3,1.4-0.8l8.2-14.5
			c0.1-0.2,0.2-0.5,0.2-0.8c0-0.4-0.2-0.8-0.5-1.2c-0.5-0.5-1.3-0.6-1.9-0.2L194.6,47.6z"/>
		
			<linearGradient id="SVGID_00000121978584660400701800000016049445654142116737_" gradientUnits="userSpaceOnUse" x1="175.4507" y1="44.2493" x2="57.6782" y2="162.0218">
			<stop  offset="0" style="stop-color:#00FF82"/>
			<stop  offset="0.25" style="stop-color:#00D2FF"/>
			<stop  offset="0.4988" style="stop-color:#0078FA"/>
			<stop  offset="0.75" style="stop-color:#8250E6"/>
			<stop  offset="1" style="stop-color:#FF32B4"/>
		</linearGradient>
		<path style="fill:url(#SVGID_00000121978584660400701800000016049445654142116737_);" d="M191.9,39.1c0.3,0.5,0.9,0.7,1.5,0.6
			c0.6-0.1,1.1-0.5,1.3-1l6.2-15.5c0.1-0.3,0.1-0.5,0.1-0.8c-0.1-0.4-0.3-0.8-0.6-1.1c-0.6-0.4-1.4-0.4-2,0l-5.6,4.2l-2.5,0.3
			l-6.5-2.7c-0.7-0.3-1.4-0.1-1.9,0.5c-0.4,0.6-0.5,1.4,0,2L191.9,39.1z"/>
		
			<linearGradient id="SVGID_00000005965121463280356520000003877207818790513339_" gradientUnits="userSpaceOnUse" x1="216.4378" y1="85.2364" x2="98.6653" y2="203.0089">
			<stop  offset="0" style="stop-color:#00FF82"/>
			<stop  offset="0.25" style="stop-color:#00D2FF"/>
			<stop  offset="0.4988" style="stop-color:#0078FA"/>
			<stop  offset="0.75" style="stop-color:#8250E6"/>
			<stop  offset="1" style="stop-color:#FF32B4"/>
		</linearGradient>
		<path style="fill:url(#SVGID_00000005965121463280356520000003877207818790513339_);" d="M111.5,193.8l-4.2-0.6
			c-0.1,0-0.2-0.1-0.2-0.2l-1.9-3.8c-0.1-0.2-0.4-0.2-0.6,0l-1.9,3.8c0,0.1-0.1,0.2-0.2,0.2l-4.2,0.6c-0.3,0-0.4,0.4-0.2,0.5l3,2.9
			c0.1,0.1,0.1,0.2,0.1,0.3l-0.7,4.2c0,0.3,0.2,0.4,0.5,0.3l3.7-2c0.1,0,0.2,0,0.3,0l3.7,2c0.2,0.1,0.5-0.1,0.5-0.3l-0.7-4.2
			c0-0.1,0-0.2,0.1-0.3l3-2.9C111.9,194.1,111.8,193.8,111.5,193.8z"/>
		
			<linearGradient id="SVGID_00000065779290985237108700000003857116929435811238_" gradientUnits="userSpaceOnUse" x1="161.5365" y1="30.335" x2="43.764" y2="148.1075">
			<stop  offset="0" style="stop-color:#00FF82"/>
			<stop  offset="0.25" style="stop-color:#00D2FF"/>
			<stop  offset="0.4988" style="stop-color:#0078FA"/>
			<stop  offset="0.75" style="stop-color:#8250E6"/>
			<stop  offset="1" style="stop-color:#FF32B4"/>
		</linearGradient>
		<path style="fill:url(#SVGID_00000065779290985237108700000003857116929435811238_);" d="M62.8,162.3
			c16.1,13.5,33.4,20.6,42.2,20.6c8.8,0,26.1-7.1,42.2-20.6c10.3-8.7,27.7-26.7,27.7-49.3V60.7V42.1v0c0-1.8-0.6-3.6-1.6-5
			c0,0-0.1-0.1-0.1-0.1c-0.2-0.3-0.5-0.6-0.8-0.9c-0.1-0.1-0.2-0.2-0.3-0.3c-0.2-0.2-0.4-0.4-0.7-0.6c0,0,0,0-0.1,0
			c-0.7-0.5-1.5-0.9-2.3-1.2c0,0,0,0,0,0c-13.9-4.8-28.2-8.1-42.8-9.7c-0.9-0.1-1.8,0.6-2,1.5c-1.6,9.2-9.6,16.2-19.3,16.2
			c-9.7,0-17.7-7-19.3-16.2c-0.2-0.9-1-1.6-2-1.5c-11.4,1.2-22.6,3.5-33.5,6.7c-3.1,0.9-6.2,1.9-9.3,3c-0.6,0.2-1.2,0.5-1.8,0.9
			c-2.5,1.6-4,4.3-4,7.3v0v18.6V113C35.1,135.6,52.5,153.6,62.8,162.3z M105,178.3c-7.9,0-24.7-7.3-39.2-19.5
			c-9.7-8.2-26.1-25-26.1-45.8V64.5c0-1.3,0.8-2.4,2-2.8c20.3-7.2,41.6-10.9,63.4-10.9c21.7,0,42.9,3.6,63.2,10.8
			c1.2,0.4,2,1.6,2,2.8V113c0,20.7-16.3,37.6-26.1,45.8C129.7,171,112.9,178.3,105,178.3z"/>
		
			<linearGradient id="SVGID_00000057869800789544493260000000703461350927130799_" gradientUnits="userSpaceOnUse" x1="133.4603" y1="-5.6737" x2="-4.3393" y2="132.1258">
			<stop  offset="0" style="stop-color:#00FF82"/>
			<stop  offset="0.25" style="stop-color:#00D2FF"/>
			<stop  offset="0.4988" style="stop-color:#0078FA"/>
			<stop  offset="0.75" style="stop-color:#8250E6"/>
			<stop  offset="1" style="stop-color:#FF32B4"/>
		</linearGradient>
		<path style="fill:url(#SVGID_00000057869800789544493260000000703461350927130799_);" d="M97.2,24c0.2,0.2,0.2,0.4,0.2,0.6
			l-1.5,8.7c-0.1,0.5,0.5,0.9,0.9,0.7l7.8-4.1c0.2-0.1,0.4-0.1,0.6,0l7.8,4.1c0.5,0.3,1-0.2,0.9-0.7l-1.5-8.7c0-0.2,0-0.4,0.2-0.6
			l6.3-6.2c0.4-0.4,0.2-1-0.4-1.1l-8.7-1.3c-0.2,0-0.4-0.2-0.5-0.4l-3.9-7.9c-0.2-0.5-0.9-0.5-1.2,0l-3.9,7.9
			c-0.1,0.2-0.3,0.3-0.5,0.4l-8.7,1.3c-0.5,0.1-0.8,0.7-0.4,1.1L97.2,24z"/>
		
			<linearGradient id="SVGID_00000178906564839483199570000014353452933081254846_" gradientUnits="userSpaceOnUse" x1="172.9089" y1="43.0074" x2="55.1364" y2="160.7799">
			<stop  offset="0" style="stop-color:#00FF82"/>
			<stop  offset="0.25" style="stop-color:#00D2FF"/>
			<stop  offset="0.4988" style="stop-color:#0078FA"/>
			<stop  offset="0.75" style="stop-color:#8250E6"/>
			<stop  offset="1" style="stop-color:#FF32B4"/>
		</linearGradient>
		<path style="fill:url(#SVGID_00000178906564839483199570000014353452933081254846_);" d="M141.5,135.7l-13.4-9.1
			c-1.7-1.1-3.9-0.8-5.3,0.7c-4.8,5.2-11.9,8.3-19.7,7.8c-11.9-0.9-21.5-10.6-22.3-22.5C80,98.4,91.1,86.7,105,86.7
			c7.1,0,13.4,3,17.8,7.9c1.3,1.5,3.5,1.8,5.2,0.7l13.5-9.2c1.9-1.3,2.4-4,0.9-5.8c-8.9-10.8-22.3-17.7-37.4-17.7
			c-27.3,0-49.4,22.7-48.3,50.3c1,24.8,21,45.1,45.8,46.4c16.1,0.8,30.5-6.2,39.9-17.6C143.9,139.8,143.4,137.1,141.5,135.7z"/>
	</g>
</g>
</svg>
