<?xml version="1.0" encoding="UTF-8"?><svg id="a" xmlns="http://www.w3.org/2000/svg" viewBox="0 0 200 200"><path d="M100,14c47.42,0,86,38.58,86,86s-38.58,86-86,86S14,147.42,14,100,52.58,14,100,14M100,4C46.98,4,4,46.98,4,100s42.98,96,96,96,96-42.98,96-96S153.02,4,100,4h0Z" style="fill:#fff; stroke-width:0px;"/><path d="M60.69,139.21c7.65-26.56,17.3-53.01,29.47-79.57h19.94c11.91,26.68,21.57,53.12,29.22,79.57h-19.31c-2.01-7.18-4.01-14.36-6.27-21.55h-30.97c-1.25,7.18-2.38,14.36-3.26,21.55h-18.81ZM84.01,110.83h27.46c-4.77-14.71-10.16-29.53-16.3-44.35-4.64,14.82-8.28,29.64-11.16,44.35Z" style="fill:#fff; stroke-width:0px;"/></svg>