<svg xmlns="http://www.w3.org/2000/svg" viewBox="0 0 25 25"><path d="M9.61,8.78a4.45,4.45,0,0,1,.93.09,2.13,2.13,0,0,1,.72.29,1.4,1.4,0,0,1,.47.55,1.88,1.88,0,0,1,.16.84,1.59,1.59,0,0,1-.24.9,1.9,1.9,0,0,1-.73.59,1.73,1.73,0,0,1,1,.66,2,2,0,0,1,.32,1.15,1.94,1.94,0,0,1-.21.93,1.86,1.86,0,0,1-.56.65,2.72,2.72,0,0,1-.81.37,3.73,3.73,0,0,1-.94.12H6.25V8.78Zm-.2,2.89a1.15,1.15,0,0,0,.69-.2.76.76,0,0,0,.27-.65.8.8,0,0,0-.09-.41.64.64,0,0,0-.24-.25A1.15,1.15,0,0,0,9.7,10a2.73,2.73,0,0,0-.41,0H7.82v1.67Zm.09,3a2.12,2.12,0,0,0,.44,0,1.11,1.11,0,0,0,.37-.15.78.78,0,0,0,.26-.28,1,1,0,0,0,.09-.46.92.92,0,0,0-.31-.79,1.37,1.37,0,0,0-.82-.23H7.82v2Z" style="fill:#fff"/><path d="M16.65,8.78a4.45,4.45,0,0,1,.93.09,2.13,2.13,0,0,1,.72.29,1.4,1.4,0,0,1,.47.55,1.88,1.88,0,0,1,.16.84,1.59,1.59,0,0,1-.24.9A1.9,1.9,0,0,1,18,12a1.73,1.73,0,0,1,1,.66,2,2,0,0,1,.32,1.15,1.94,1.94,0,0,1-.21.93,1.86,1.86,0,0,1-.56.65,2.72,2.72,0,0,1-.81.37,3.73,3.73,0,0,1-.94.12H13.29V8.78Zm-.2,2.89a1.15,1.15,0,0,0,.69-.2.76.76,0,0,0,.27-.65.8.8,0,0,0-.09-.41.64.64,0,0,0-.24-.25,1.15,1.15,0,0,0-.34-.13,2.73,2.73,0,0,0-.41,0H14.86v1.67Zm.09,3a2.12,2.12,0,0,0,.44,0,1.11,1.11,0,0,0,.37-.15.78.78,0,0,0,.26-.28,1,1,0,0,0,.09-.46.92.92,0,0,0-.31-.79,1.37,1.37,0,0,0-.82-.23H14.86v2Z" style="fill:#fff"/><path d="M12.5,2.3A10.2,10.2,0,1,1,2.3,12.5,10.22,10.22,0,0,1,12.5,2.3m0-1.8a12,12,0,1,0,12,12,12,12,0,0,0-12-12Z" style="fill:#fff"/></svg>