<svg version="1.1" id="Layer_1" xmlns="http://www.w3.org/2000/svg" xmlns:xlink="http://www.w3.org/1999/xlink" x="0px" y="0px"
	 viewBox="0 0 210 208.9" style="enable-background:new 0 0 210 208.9;" xml:space="preserve">
<style type="text/css">
	.st0{fill:url(#SVGID_1_);}
	.st1{fill:url(#SVGID_00000083787763710941164940000001936001344877069727_);}
	.st2{fill:url(#SVGID_00000179609720185869508650000003794388049798090635_);}
	.st3{fill:url(#SVGID_00000037675088875978881390000001836859099751545730_);}
	.st4{fill:url(#SVGID_00000134239411819487043520000009511806767787288992_);}
	.st5{fill:url(#SVGID_00000046317130417842563540000006992003548448011940_);}
	.st6{fill:url(#SVGID_00000111896504002151669750000005591704471033312924_);}
	.st7{fill:url(#SVGID_00000104683772955027105420000007964538985549557942_);}
	.st8{fill:url(#SVGID_00000111171978265825352020000012265130158385335431_);}
	.st9{fill:url(#SVGID_00000021839074846646913230000012189027861658861965_);}
	.st10{fill:url(#SVGID_00000039842335102511047820000006007853696882203833_);}
	.st11{fill:url(#SVGID_00000026144916785258733090000002199145200716402334_);}
	.st12{fill:url(#SVGID_00000085939219517425808720000005125059988770281857_);}
	.st13{fill:url(#SVGID_00000099637381157330117610000006058113888858817184_);}
	.st14{fill:url(#SVGID_00000065042494639002231340000008573642527046233777_);}
	.st15{fill:url(#SVGID_00000169558207401396534880000011359491675420232072_);}
	.st16{fill:url(#SVGID_00000049914180166426784000000010333898441083595938_);}
	.st17{fill:url(#SVGID_00000046329108595107766150000009601270251654167171_);}
	.st18{fill:url(#SVGID_00000105388939995806319650000018361968089558749849_);}
	.st19{fill:url(#SVGID_00000088096784264108018930000004748815651171805887_);}
	.st20{fill:url(#SVGID_00000030448439630892833890000008557142611072538262_);}
	.st21{fill:url(#SVGID_00000047757780293755339050000006631780079313643957_);}
	.st22{fill:url(#SVGID_00000101087421480662093070000018117297729110308027_);}
	.st23{fill:url(#SVGID_00000065759265801238020730000017676912725352778132_);}
</style>
<g>
	<g>
		
			<linearGradient id="SVGID_1_" gradientUnits="userSpaceOnUse" x1="203.9118" y1="137.2266" x2="86.1393" y2="19.4541" gradientTransform="matrix(1 0 0 -1 0 209.9375)">
			<stop  offset="0" style="stop-color:#00FF82"/>
			<stop  offset="0.25" style="stop-color:#00D2FF"/>
			<stop  offset="0.4988" style="stop-color:#0078FA"/>
			<stop  offset="0.75" style="stop-color:#8250E6"/>
			<stop  offset="1" style="stop-color:#FF32B4"/>
		</linearGradient>
		<path class="st0" d="M81.6,183.3c-0.5-0.5-1.3-0.5-2-0.2c-0.6,0.4-0.9,1.2-0.7,1.8l2.1,6.7l-0.5,2.4l-4.7,5.2
			c-0.5,0.5-0.6,1.3-0.2,1.9c0.2,0.4,0.6,0.6,1,0.7c0.3,0.1,0.5,0.1,0.8,0l15.9-4.8c0.6-0.2,1-0.6,1.1-1.2c0.1-0.6-0.1-1.2-0.5-1.5
			L81.6,183.3z"/>
		
			<linearGradient id="SVGID_00000111902667258441420360000003238970431827621255_" gradientUnits="userSpaceOnUse" x1="192.0649" y1="149.0735" x2="74.2924" y2="31.301" gradientTransform="matrix(1 0 0 -1 0 209.9375)">
			<stop  offset="0" style="stop-color:#00FF82"/>
			<stop  offset="0.25" style="stop-color:#00D2FF"/>
			<stop  offset="0.4988" style="stop-color:#0078FA"/>
			<stop  offset="0.75" style="stop-color:#8250E6"/>
			<stop  offset="1" style="stop-color:#FF32B4"/>
		</linearGradient>
		<path style="fill:url(#SVGID_00000111902667258441420360000003238970431827621255_);" d="M67.2,175.3c-0.3-0.7-1-1-1.8-0.9
			c-0.7,0.1-1.2,0.8-1.3,1.5l-0.5,7l-1.4,2.1l-6.3,3.1c-0.6,0.3-1,1-0.9,1.8c0.1,0.4,0.3,0.8,0.7,1c0.2,0.1,0.5,0.2,0.8,0.3
			l16.6,1.3c0.6,0,1.1-0.2,1.5-0.7c0.3-0.5,0.4-1.1,0.1-1.6L67.2,175.3z"/>
		
			<linearGradient id="SVGID_00000098914187222796762200000004698586779551039883_" gradientUnits="userSpaceOnUse" x1="178.3119" y1="162.8265" x2="60.5394" y2="45.054" gradientTransform="matrix(1 0 0 -1 0 209.9375)">
			<stop  offset="0" style="stop-color:#00FF82"/>
			<stop  offset="0.25" style="stop-color:#00D2FF"/>
			<stop  offset="0.4988" style="stop-color:#0078FA"/>
			<stop  offset="0.75" style="stop-color:#8250E6"/>
			<stop  offset="1" style="stop-color:#FF32B4"/>
		</linearGradient>
		<path style="fill:url(#SVGID_00000098914187222796762200000004698586779551039883_);" d="M57.4,180.7c0.4-0.4,0.6-1,0.4-1.6
			l-4.7-16c-0.2-0.7-0.9-1.2-1.6-1.2c-0.7,0-1.4,0.5-1.5,1.2l-1.8,6.8l-1.7,1.8l-6.7,1.9c-0.7,0.2-1.2,0.8-1.2,1.6
			c0,0.4,0.2,0.8,0.5,1.1c0.2,0.2,0.4,0.3,0.7,0.4l16.1,4.3C56.4,181.3,57,181.1,57.4,180.7z"/>
		
			<linearGradient id="SVGID_00000041277282037340975000000007983247635933552274_" gradientUnits="userSpaceOnUse" x1="163.6457" y1="177.4928" x2="45.8732" y2="59.7202" gradientTransform="matrix(1 0 0 -1 0 209.9375)">
			<stop  offset="0" style="stop-color:#00FF82"/>
			<stop  offset="0.25" style="stop-color:#00D2FF"/>
			<stop  offset="0.4988" style="stop-color:#0078FA"/>
			<stop  offset="0.75" style="stop-color:#8250E6"/>
			<stop  offset="1" style="stop-color:#FF32B4"/>
		</linearGradient>
		<path style="fill:url(#SVGID_00000041277282037340975000000007983247635933552274_);" d="M42.5,166.4c0.4-0.4,0.6-1,0.5-1.5
			l-3.6-16.3c-0.2-0.7-0.8-1.2-1.5-1.3c-0.7,0-1.4,0.4-1.6,1.1l-2.2,6.7l-1.9,1.7l-6.9,1.5c-0.7,0.2-1.2,0.8-1.3,1.5
			c0,0.4,0.1,0.9,0.4,1.2c0.2,0.2,0.4,0.4,0.7,0.4l15.8,5.4C41.4,166.9,42,166.8,42.5,166.4z"/>
		
			<linearGradient id="SVGID_00000085212613076726881400000003621083343655716996_" gradientUnits="userSpaceOnUse" x1="147.9621" y1="193.1764" x2="30.1896" y2="75.4039" gradientTransform="matrix(1 0 0 -1 0 209.9375)">
			<stop  offset="0" style="stop-color:#00FF82"/>
			<stop  offset="0.25" style="stop-color:#00D2FF"/>
			<stop  offset="0.4988" style="stop-color:#0078FA"/>
			<stop  offset="0.75" style="stop-color:#8250E6"/>
			<stop  offset="1" style="stop-color:#FF32B4"/>
		</linearGradient>
		<path style="fill:url(#SVGID_00000085212613076726881400000003621083343655716996_);" d="M28.6,149.8c0.5-0.3,0.9-0.8,0.9-1.4
			l0.7-16.6c0-0.7-0.4-1.4-1.1-1.6c-0.7-0.2-1.4,0-1.8,0.7l-3.9,5.9l-2.2,1.1l-7-0.4c-0.7,0-1.4,0.4-1.6,1.1
			c-0.1,0.4-0.1,0.9,0.1,1.2c0.1,0.2,0.3,0.4,0.5,0.6l13.8,9.3C27.4,150.1,28.1,150.1,28.6,149.8z"/>
		
			<linearGradient id="SVGID_00000070798391487891845870000000514389041551759491_" gradientUnits="userSpaceOnUse" x1="133.4679" y1="207.6705" x2="15.6954" y2="89.898" gradientTransform="matrix(1 0 0 -1 0 209.9375)">
			<stop  offset="0" style="stop-color:#00FF82"/>
			<stop  offset="0.25" style="stop-color:#00D2FF"/>
			<stop  offset="0.4988" style="stop-color:#0078FA"/>
			<stop  offset="0.75" style="stop-color:#8250E6"/>
			<stop  offset="1" style="stop-color:#FF32B4"/>
		</linearGradient>
		<path style="fill:url(#SVGID_00000070798391487891845870000000514389041551759491_);" d="M19.8,129.5c0.6-0.1,1.1-0.5,1.3-1
			l5.9-15.6c0.3-0.7,0-1.4-0.6-1.9c-0.6-0.4-1.4-0.4-2,0l-5.5,4.4l-2.5,0.4l-6.6-2.5c-0.7-0.3-1.4,0-1.9,0.5
			c-0.3,0.4-0.4,0.8-0.3,1.2c0,0.3,0.1,0.5,0.3,0.7l10.2,13.1C18.6,129.4,19.2,129.6,19.8,129.5z"/>
		
			<linearGradient id="SVGID_00000111911667561774363880000007390979403647330946_" gradientUnits="userSpaceOnUse" x1="120.8694" y1="220.269" x2="3.0969" y2="102.4965" gradientTransform="matrix(1 0 0 -1 0 209.9375)">
			<stop  offset="0" style="stop-color:#00FF82"/>
			<stop  offset="0.25" style="stop-color:#00D2FF"/>
			<stop  offset="0.4988" style="stop-color:#0078FA"/>
			<stop  offset="0.75" style="stop-color:#8250E6"/>
			<stop  offset="1" style="stop-color:#FF32B4"/>
		</linearGradient>
		<path style="fill:url(#SVGID_00000111911667561774363880000007390979403647330946_);" d="M16.6,106.8c0.6,0,1.1-0.3,1.4-0.8
			l8.2-14.5c0.4-0.6,0.2-1.4-0.3-1.9S24.6,89,24,89.4l-6.1,3.5h-2.5l-6.1-3.5c-0.6-0.4-1.4-0.3-1.9,0.2c-0.3,0.3-0.5,0.7-0.5,1.2
			c0,0.3,0.1,0.5,0.2,0.8l8.2,14.5C15.5,106.5,16,106.8,16.6,106.8z"/>
		
			<linearGradient id="SVGID_00000003087604396755309720000010488701969486683038_" gradientUnits="userSpaceOnUse" x1="109.5695" y1="231.569" x2="-8.203" y2="113.7965" gradientTransform="matrix(1 0 0 -1 0 209.9375)">
			<stop  offset="0" style="stop-color:#00FF82"/>
			<stop  offset="0.25" style="stop-color:#00D2FF"/>
			<stop  offset="0.4988" style="stop-color:#0078FA"/>
			<stop  offset="0.75" style="stop-color:#8250E6"/>
			<stop  offset="1" style="stop-color:#FF32B4"/>
		</linearGradient>
		<path style="fill:url(#SVGID_00000003087604396755309720000010488701969486683038_);" d="M15.2,83.4c0.3,0.5,0.8,0.8,1.4,0.8
			s1.1-0.3,1.4-0.8l8.2-14.5c0.4-0.6,0.2-1.4-0.3-1.9s-1.3-0.6-1.9-0.2l-6.1,3.5h-2.5l-6.1-3.5c-0.6-0.4-1.4-0.3-1.9,0.2
			c-0.3,0.3-0.5,0.7-0.5,1.2c0,0.3,0.1,0.5,0.2,0.8L15.2,83.4z"/>
		
			<linearGradient id="SVGID_00000181801642533015466710000012157968502444281990_" gradientUnits="userSpaceOnUse" x1="98.2694" y1="242.869" x2="-19.5031" y2="125.0965" gradientTransform="matrix(1 0 0 -1 0 209.9375)">
			<stop  offset="0" style="stop-color:#00FF82"/>
			<stop  offset="0.25" style="stop-color:#00D2FF"/>
			<stop  offset="0.4988" style="stop-color:#0078FA"/>
			<stop  offset="0.75" style="stop-color:#8250E6"/>
			<stop  offset="1" style="stop-color:#FF32B4"/>
		</linearGradient>
		<path style="fill:url(#SVGID_00000181801642533015466710000012157968502444281990_);" d="M15.2,60.8c0.3,0.5,0.8,0.8,1.4,0.8
			s1.1-0.3,1.4-0.8l8.2-14.5c0.4-0.6,0.2-1.4-0.3-1.9s-1.3-0.6-1.9-0.2l-6.1,3.5h-2.5l-6.1-3.5c-0.6-0.4-1.4-0.3-1.9,0.2
			c-0.3,0.3-0.5,0.7-0.5,1.2c0,0.3,0.1,0.5,0.2,0.8L15.2,60.8z"/>
		
			<linearGradient id="SVGID_00000133493446396365281680000010511617600267102861_" gradientUnits="userSpaceOnUse" x1="87.6943" y1="253.4441" x2="-30.0782" y2="135.6716" gradientTransform="matrix(1 0 0 -1 0 209.9375)">
			<stop  offset="0" style="stop-color:#00FF82"/>
			<stop  offset="0.25" style="stop-color:#00D2FF"/>
			<stop  offset="0.4988" style="stop-color:#0078FA"/>
			<stop  offset="0.75" style="stop-color:#8250E6"/>
			<stop  offset="1" style="stop-color:#FF32B4"/>
		</linearGradient>
		<path style="fill:url(#SVGID_00000133493446396365281680000010511617600267102861_);" d="M15.3,38.8c0.2,0.5,0.7,0.9,1.3,1
			s1.1-0.2,1.5-0.6L28,25.8c0.4-0.6,0.4-1.4,0-2s-1.2-0.8-1.9-0.5L19.7,26l-2.5-0.3l-5.6-4.2c-0.6-0.4-1.4-0.4-2,0
			C9.2,21.8,9,22.2,9,22.6c0,0.3,0,0.5,0.1,0.8L15.3,38.8z"/>
		
			<linearGradient id="SVGID_00000130638444218992367130000012396088950002404738_" gradientUnits="userSpaceOnUse" x1="227.1458" y1="113.9926" x2="109.3733" y2="-3.7799" gradientTransform="matrix(1 0 0 -1 0 209.9375)">
			<stop  offset="0" style="stop-color:#00FF82"/>
			<stop  offset="0.25" style="stop-color:#00D2FF"/>
			<stop  offset="0.4988" style="stop-color:#0078FA"/>
			<stop  offset="0.75" style="stop-color:#8250E6"/>
			<stop  offset="1" style="stop-color:#FF32B4"/>
		</linearGradient>
		<path style="fill:url(#SVGID_00000130638444218992367130000012396088950002404738_);" d="M129.4,194.2l-0.5-2.4l2.1-6.7
			c0.2-0.7-0.1-1.4-0.7-1.8c-0.6-0.4-1.4-0.3-2,0.2l-12.4,11.1c-0.4,0.4-0.6,1-0.5,1.5c0.1,0.6,0.5,1,1.1,1.2l15.9,4.8
			c0.3,0.1,0.5,0.1,0.8,0c0.4-0.1,0.8-0.3,1-0.7c0.4-0.6,0.3-1.4-0.2-1.9L129.4,194.2z"/>
		
			<linearGradient id="SVGID_00000037679340548483348030000013007480985187985315_" gradientUnits="userSpaceOnUse" x1="231.3709" y1="109.7675" x2="113.5985" y2="-8.005" gradientTransform="matrix(1 0 0 -1 0 209.9375)">
			<stop  offset="0" style="stop-color:#00FF82"/>
			<stop  offset="0.25" style="stop-color:#00D2FF"/>
			<stop  offset="0.4988" style="stop-color:#0078FA"/>
			<stop  offset="0.75" style="stop-color:#8250E6"/>
			<stop  offset="1" style="stop-color:#FF32B4"/>
		</linearGradient>
		<path style="fill:url(#SVGID_00000037679340548483348030000013007480985187985315_);" d="M154,188.1l-6.3-3.1l-1.4-2.1l-0.5-7
			c-0.1-0.7-0.6-1.3-1.3-1.5c-0.7-0.1-1.4,0.2-1.8,0.9l-7.5,14.9c-0.3,0.5-0.2,1.1,0.1,1.6s0.9,0.8,1.5,0.7l16.6-1.3
			c0.3,0,0.5-0.1,0.8-0.3c0.4-0.2,0.6-0.6,0.7-1C155,189.2,154.7,188.5,154,188.1z"/>
		
			<linearGradient id="SVGID_00000145747194363065065600000005635772009575911810_" gradientUnits="userSpaceOnUse" x1="232.4813" y1="108.6571" x2="114.7088" y2="-9.1154" gradientTransform="matrix(1 0 0 -1 0 209.9375)">
			<stop  offset="0" style="stop-color:#00FF82"/>
			<stop  offset="0.25" style="stop-color:#00D2FF"/>
			<stop  offset="0.4988" style="stop-color:#0078FA"/>
			<stop  offset="0.75" style="stop-color:#8250E6"/>
			<stop  offset="1" style="stop-color:#FF32B4"/>
		</linearGradient>
		<path style="fill:url(#SVGID_00000145747194363065065600000005635772009575911810_);" d="M170.3,173.7l-6.7-1.9l-1.7-1.8l-1.8-6.8
			c-0.2-0.7-0.8-1.2-1.5-1.2s-1.4,0.5-1.6,1.2l-4.7,16c-0.2,0.6,0,1.2,0.4,1.6c0.4,0.4,1,0.6,1.6,0.4l16.1-4.3
			c0.3-0.1,0.5-0.2,0.7-0.4c0.3-0.3,0.5-0.7,0.5-1.1C171.4,174.6,171,173.9,170.3,173.7z"/>
		
			<linearGradient id="SVGID_00000147220991036767256010000009547112345309217172_" gradientUnits="userSpaceOnUse" x1="231.9374" y1="109.201" x2="114.1649" y2="-8.5715" gradientTransform="matrix(1 0 0 -1 0 209.9375)">
			<stop  offset="0" style="stop-color:#00FF82"/>
			<stop  offset="0.25" style="stop-color:#00D2FF"/>
			<stop  offset="0.4988" style="stop-color:#0078FA"/>
			<stop  offset="0.75" style="stop-color:#8250E6"/>
			<stop  offset="1" style="stop-color:#FF32B4"/>
		</linearGradient>
		<path style="fill:url(#SVGID_00000147220991036767256010000009547112345309217172_);" d="M184.7,158.3l-6.9-1.5l-1.9-1.7l-2.2-6.7
			c-0.2-0.7-0.9-1.1-1.6-1.1c-0.7,0-1.3,0.6-1.5,1.3l-3.6,16.3c-0.1,0.6,0.1,1.2,0.5,1.5c0.4,0.4,1,0.5,1.6,0.3l15.8-5.4
			c0.3-0.1,0.5-0.2,0.7-0.4c0.3-0.3,0.4-0.7,0.4-1.2C186,159,185.4,158.4,184.7,158.3z"/>
		
			<linearGradient id="SVGID_00000021824312563373413950000017890048497668533945_" gradientUnits="userSpaceOnUse" x1="227.6636" y1="113.4748" x2="109.8911" y2="-4.2977" gradientTransform="matrix(1 0 0 -1 0 209.9375)">
			<stop  offset="0" style="stop-color:#00FF82"/>
			<stop  offset="0.25" style="stop-color:#00D2FF"/>
			<stop  offset="0.4988" style="stop-color:#0078FA"/>
			<stop  offset="0.75" style="stop-color:#8250E6"/>
			<stop  offset="1" style="stop-color:#FF32B4"/>
		</linearGradient>
		<path style="fill:url(#SVGID_00000021824312563373413950000017890048497668533945_);" d="M195.9,137.5l-7,0.4l-2.2-1.1l-3.9-5.9
			c-0.4-0.6-1.2-0.9-1.8-0.7c-0.7,0.2-1.1,0.9-1.1,1.6l0.7,16.6c0,0.6,0.4,1.1,0.9,1.4c0.5,0.3,1.1,0.2,1.6-0.1l13.8-9.3
			c0.2-0.2,0.4-0.4,0.5-0.6c0.2-0.4,0.2-0.8,0.1-1.2C197.3,137.9,196.6,137.4,195.9,137.5z"/>
		
			<linearGradient id="SVGID_00000034794593444293347230000014781505413211904422_" gradientUnits="userSpaceOnUse" x1="219.3539" y1="121.7845" x2="101.5814" y2="4.012" gradientTransform="matrix(1 0 0 -1 0 209.9375)">
			<stop  offset="0" style="stop-color:#00FF82"/>
			<stop  offset="0.25" style="stop-color:#00D2FF"/>
			<stop  offset="0.4988" style="stop-color:#0078FA"/>
			<stop  offset="0.75" style="stop-color:#8250E6"/>
			<stop  offset="1" style="stop-color:#FF32B4"/>
		</linearGradient>
		<path style="fill:url(#SVGID_00000034794593444293347230000014781505413211904422_);" d="M200.1,113.3l-6.6,2.5l-2.5-0.4l-5.5-4.4
			c-0.6-0.5-1.4-0.5-2,0c-0.6,0.4-0.8,1.2-0.6,1.9l5.9,15.6c0.2,0.5,0.7,0.9,1.3,1s1.2-0.1,1.5-0.6l10.2-13.1
			c0.2-0.2,0.3-0.5,0.3-0.7c0.1-0.4,0-0.9-0.3-1.2C201.5,113.2,200.8,113,200.1,113.3z"/>
		
			<linearGradient id="SVGID_00000113320854215593317270000011463662268384242820_" gradientUnits="userSpaceOnUse" x1="209.2194" y1="131.919" x2="91.4469" y2="14.1465" gradientTransform="matrix(1 0 0 -1 0 209.9375)">
			<stop  offset="0" style="stop-color:#00FF82"/>
			<stop  offset="0.25" style="stop-color:#00D2FF"/>
			<stop  offset="0.4988" style="stop-color:#0078FA"/>
			<stop  offset="0.75" style="stop-color:#8250E6"/>
			<stop  offset="1" style="stop-color:#FF32B4"/>
		</linearGradient>
		<path style="fill:url(#SVGID_00000113320854215593317270000011463662268384242820_);" d="M200.7,89.3l-6.1,3.5h-2.5l-6.1-3.5
			c-0.6-0.4-1.4-0.3-1.9,0.2s-0.6,1.3-0.3,1.9L192,106c0.3,0.5,0.8,0.8,1.4,0.8c0.6,0,1.1-0.3,1.4-0.8l8.2-14.5
			c0.1-0.2,0.2-0.5,0.2-0.8c0-0.4-0.2-0.8-0.5-1.2C202.2,89,201.4,88.9,200.7,89.3z"/>
		
			<linearGradient id="SVGID_00000051347379588769333100000015722617902714651575_" gradientUnits="userSpaceOnUse" x1="197.8944" y1="143.244" x2="80.1219" y2="25.4715" gradientTransform="matrix(1 0 0 -1 0 209.9375)">
			<stop  offset="0" style="stop-color:#00FF82"/>
			<stop  offset="0.25" style="stop-color:#00D2FF"/>
			<stop  offset="0.4988" style="stop-color:#0078FA"/>
			<stop  offset="0.75" style="stop-color:#8250E6"/>
			<stop  offset="1" style="stop-color:#FF32B4"/>
		</linearGradient>
		<path style="fill:url(#SVGID_00000051347379588769333100000015722617902714651575_);" d="M200.7,66.7l-6.1,3.5h-2.5l-6.1-3.5
			c-0.6-0.4-1.4-0.3-1.9,0.2s-0.6,1.3-0.3,1.9l8.2,14.5c0.3,0.5,0.8,0.8,1.4,0.8c0.6,0,1.1-0.3,1.4-0.8l8.2-14.5
			c0.1-0.2,0.2-0.5,0.2-0.8c0-0.4-0.2-0.8-0.5-1.2C202.2,66.5,201.4,66.4,200.7,66.7z"/>
		
			<linearGradient id="SVGID_00000138544284733796251830000003535300489651502465_" gradientUnits="userSpaceOnUse" x1="186.6062" y1="154.5558" x2="68.8337" y2="36.7833" gradientTransform="matrix(1 0 0 -1 0 209.9375)">
			<stop  offset="0" style="stop-color:#00FF82"/>
			<stop  offset="0.25" style="stop-color:#00D2FF"/>
			<stop  offset="0.4988" style="stop-color:#0078FA"/>
			<stop  offset="0.75" style="stop-color:#8250E6"/>
			<stop  offset="1" style="stop-color:#FF32B4"/>
		</linearGradient>
		<path style="fill:url(#SVGID_00000138544284733796251830000003535300489651502465_);" d="M194.6,47.6h-2.5l-6.1-3.5
			c-0.6-0.4-1.4-0.3-1.9,0.2s-0.6,1.3-0.3,1.9l8.2,14.5c0.3,0.5,0.8,0.8,1.4,0.8c0.6,0,1.1-0.3,1.4-0.8l8.2-14.5
			c0.1-0.2,0.2-0.5,0.2-0.8c0-0.4-0.2-0.8-0.5-1.2c-0.5-0.5-1.3-0.6-1.9-0.2L194.6,47.6z"/>
		
			<linearGradient id="SVGID_00000138552271426306087590000008243180149116263554_" gradientUnits="userSpaceOnUse" x1="175.3647" y1="165.7737" x2="57.5922" y2="48.0012" gradientTransform="matrix(1 0 0 -1 0 209.9375)">
			<stop  offset="0" style="stop-color:#00FF82"/>
			<stop  offset="0.25" style="stop-color:#00D2FF"/>
			<stop  offset="0.4988" style="stop-color:#0078FA"/>
			<stop  offset="0.75" style="stop-color:#8250E6"/>
			<stop  offset="1" style="stop-color:#FF32B4"/>
		</linearGradient>
		<path style="fill:url(#SVGID_00000138552271426306087590000008243180149116263554_);" d="M191.9,39.1c0.3,0.5,0.9,0.7,1.5,0.6
			c0.6-0.1,1.1-0.5,1.3-1l6.2-15.5c0.1-0.3,0.1-0.5,0.1-0.8c-0.1-0.4-0.3-0.8-0.6-1.1c-0.6-0.4-1.4-0.4-2,0l-5.6,4.2l-2.5,0.3
			l-6.5-2.7c-0.7-0.3-1.4-0.1-1.9,0.5c-0.4,0.6-0.5,1.4,0,2L191.9,39.1z"/>
		
			<linearGradient id="SVGID_00000060734966805431257080000006809007398451829434_" gradientUnits="userSpaceOnUse" x1="216.3457" y1="124.7928" x2="98.5732" y2="7.0203" gradientTransform="matrix(1 0 0 -1 0 209.9375)">
			<stop  offset="0" style="stop-color:#00FF82"/>
			<stop  offset="0.25" style="stop-color:#00D2FF"/>
			<stop  offset="0.4988" style="stop-color:#0078FA"/>
			<stop  offset="0.75" style="stop-color:#8250E6"/>
			<stop  offset="1" style="stop-color:#FF32B4"/>
		</linearGradient>
		<path style="fill:url(#SVGID_00000060734966805431257080000006809007398451829434_);" d="M111.5,193.8l-4.2-0.6
			c-0.1,0-0.2-0.1-0.2-0.2l-1.9-3.8c-0.1-0.2-0.4-0.2-0.6,0l-1.9,3.8c0,0.1-0.1,0.2-0.2,0.2l-4.2,0.6c-0.3,0-0.4,0.4-0.2,0.5l3,2.9
			c0.1,0.1,0.1,0.2,0.1,0.3l-0.7,4.2c0,0.3,0.2,0.4,0.5,0.3l3.7-2c0.1,0,0.2,0,0.3,0l3.7,2c0.2,0.1,0.5-0.1,0.5-0.3l-0.7-4.2
			c0-0.1,0-0.2,0.1-0.3l3-2.9C111.9,194.1,111.8,193.8,111.5,193.8z"/>
		
			<linearGradient id="SVGID_00000114068616963761557550000004782828097307569055_" gradientUnits="userSpaceOnUse" x1="161.5122" y1="179.6263" x2="43.7397" y2="61.8538" gradientTransform="matrix(1 0 0 -1 0 209.9375)">
			<stop  offset="0" style="stop-color:#00FF82"/>
			<stop  offset="0.25" style="stop-color:#00D2FF"/>
			<stop  offset="0.4988" style="stop-color:#0078FA"/>
			<stop  offset="0.75" style="stop-color:#8250E6"/>
			<stop  offset="1" style="stop-color:#FF32B4"/>
		</linearGradient>
		<path style="fill:url(#SVGID_00000114068616963761557550000004782828097307569055_);" d="M62.8,162.3
			c16.1,13.5,33.4,20.6,42.2,20.6s26.1-7.1,42.2-20.6c10.3-8.7,27.7-26.7,27.7-49.3V60.7V42.1l0,0c0-1.8-0.6-3.6-1.6-5l-0.1-0.1
			c-0.2-0.3-0.5-0.6-0.8-0.9c-0.1-0.1-0.2-0.2-0.3-0.3c-0.2-0.2-0.4-0.4-0.7-0.6c0,0,0,0-0.1,0c-0.7-0.5-1.5-0.9-2.3-1.2l0,0
			c-13.9-4.8-28.2-8.1-42.8-9.7c-0.9-0.1-1.8,0.6-2,1.5C122.6,35,114.6,42,104.9,42s-17.7-7-19.3-16.2c-0.2-0.9-1-1.6-2-1.5
			C72.2,25.5,61,27.8,50.1,31c-3.1,0.9-6.2,1.9-9.3,3c-0.6,0.2-1.2,0.5-1.8,0.9c-2.5,1.6-4,4.3-4,7.3l0,0v18.6V113
			C35.1,135.6,52.5,153.6,62.8,162.3z M105,178.3c-7.9,0-24.7-7.3-39.2-19.5c-9.7-8.2-26.1-25-26.1-45.8V64.5c0-1.3,0.8-2.4,2-2.8
			c20.3-7.2,41.6-10.9,63.4-10.9c21.7,0,42.9,3.6,63.2,10.8c1.2,0.4,2,1.6,2,2.8V113c0,20.7-16.3,37.6-26.1,45.8
			C129.7,171,112.9,178.3,105,178.3z"/>
		
			<linearGradient id="SVGID_00000179645598271028200030000004820225555180663977_" gradientUnits="userSpaceOnUse" x1="133.3798" y1="215.6912" x2="-4.4198" y2="77.8917" gradientTransform="matrix(1 0 0 -1 0 209.9375)">
			<stop  offset="0" style="stop-color:#00FF82"/>
			<stop  offset="0.25" style="stop-color:#00D2FF"/>
			<stop  offset="0.4988" style="stop-color:#0078FA"/>
			<stop  offset="0.75" style="stop-color:#8250E6"/>
			<stop  offset="1" style="stop-color:#FF32B4"/>
		</linearGradient>
		<path style="fill:url(#SVGID_00000179645598271028200030000004820225555180663977_);" d="M97.2,24c0.2,0.2,0.2,0.4,0.2,0.6
			l-1.5,8.7c-0.1,0.5,0.5,0.9,0.9,0.7l7.8-4.1c0.2-0.1,0.4-0.1,0.6,0L113,34c0.5,0.3,1-0.2,0.9-0.7l-1.5-8.7c0-0.2,0-0.4,0.2-0.6
			l6.3-6.2c0.4-0.4,0.2-1-0.4-1.1l-8.7-1.3c-0.2,0-0.4-0.2-0.5-0.4l-3.9-7.9c-0.2-0.5-0.9-0.5-1.2,0l-3.9,7.9
			c-0.1,0.2-0.3,0.3-0.5,0.4l-8.7,1.3c-0.5,0.1-0.8,0.7-0.4,1.1L97.2,24z"/>
		
			<linearGradient id="SVGID_00000011004216764941942310000003632971065766302100_" gradientUnits="userSpaceOnUse" x1="172.9527" y1="166.8858" x2="55.1802" y2="49.1133" gradientTransform="matrix(1 0 0 -1 0 209.9375)">
			<stop  offset="0" style="stop-color:#00FF82"/>
			<stop  offset="0.25" style="stop-color:#00D2FF"/>
			<stop  offset="0.4988" style="stop-color:#0078FA"/>
			<stop  offset="0.75" style="stop-color:#8250E6"/>
			<stop  offset="1" style="stop-color:#FF32B4"/>
		</linearGradient>
		<path style="fill:url(#SVGID_00000011004216764941942310000003632971065766302100_);" d="M141.5,135.7l-13.4-9.1
			c-1.7-1.1-3.9-0.8-5.3,0.7c-4.8,5.2-11.9,8.3-19.7,7.8c-11.9-0.9-21.5-10.6-22.3-22.5C80,98.4,91.1,86.7,105,86.7
			c7.1,0,13.4,3,17.8,7.9c1.3,1.5,3.5,1.8,5.2,0.7l13.5-9.2c1.9-1.3,2.4-4,0.9-5.8c-8.9-10.8-22.3-17.7-37.4-17.7
			c-27.3,0-49.4,22.7-48.3,50.3c1,24.8,21,45.1,45.8,46.4c16.1,0.8,30.5-6.2,39.9-17.6C143.9,139.8,143.4,137.1,141.5,135.7z"/>
	</g>
</g>
</svg>
