<svg xmlns="http://www.w3.org/2000/svg" viewBox="0 0 25 25"><path d="M5.87,10.1V8.78h5.85V10.1H9.58v5.82H8V10.1Z" style="fill:#fff"/><path d="M17.12,10.68a1.44,1.44,0,0,0-.35-.39A1.69,1.69,0,0,0,16.3,10a1.77,1.77,0,0,0-.56-.09,1.93,1.93,0,0,0-.9.2,1.67,1.67,0,0,0-.6.55,2.44,2.44,0,0,0-.33.79,3.84,3.84,0,0,0-.11.91,3.58,3.58,0,0,0,.11.87,2.42,2.42,0,0,0,.33.77,1.65,1.65,0,0,0,.6.54,1.81,1.81,0,0,0,.9.21,1.48,1.48,0,0,0,1.13-.44,2.05,2.05,0,0,0,.49-1.16h1.52a3.59,3.59,0,0,1-.31,1.21,3.09,3.09,0,0,1-.66.92,2.9,2.9,0,0,1-1,.58,3.82,3.82,0,0,1-2.68-.09A3.18,3.18,0,0,1,13.16,15a3.56,3.56,0,0,1-.69-1.18,4.28,4.28,0,0,1-.24-1.45,4.48,4.48,0,0,1,.24-1.49,3.61,3.61,0,0,1,.69-1.19,3.1,3.1,0,0,1,1.11-.8,3.83,3.83,0,0,1,2.59-.12,3.12,3.12,0,0,1,.94.49,2.82,2.82,0,0,1,.68.81,2.9,2.9,0,0,1,.34,1.1H17.3A1.43,1.43,0,0,0,17.12,10.68Z" style="fill:#fff"/><path d="M12.5,2.3A10.2,10.2,0,1,1,2.3,12.5,10.22,10.22,0,0,1,12.5,2.3m0-1.8a12,12,0,1,0,12,12,12,12,0,0,0-12-12Z" style="fill:#fff"/></svg>